<!-- Generated by IcoMoon.io -->
<svg version="1.1" xmlns="http://www.w3.org/2000/svg" width="32" height="32" viewBox="0 0 32 32">
<path d="M7.667 4c-2.021 0-3.667 1.645-3.667 3.667v16.667c0 2.021 1.645 3.667 3.667 3.667h16.667c2.021 0 3.667-1.645 3.667-3.667v-13.701l-2 2v11.701c0 0.919-0.747 1.667-1.667 1.667h-16.667c-0.919 0-1.667-0.747-1.667-1.667v-16.667c0-0.919 0.747-1.667 1.667-1.667h16.667c0.468 0 0.889 0.196 1.193 0.508l1.414-1.414c-0.665-0.674-1.587-1.094-2.607-1.094h-16.667zM27.647 6.658c-0.27 0.008-0.512 0.122-0.687 0.302l-12.627 12.627-2.626-2.626c-0.182-0.19-0.438-0.307-0.721-0.307-0.552 0-1 0.448-1 1 0 0.283 0.118 0.539 0.307 0.721l0 0 3.333 3.333c0.181 0.181 0.431 0.293 0.707 0.293s0.526-0.112 0.707-0.293l13.333-13.333c0.187-0.182 0.302-0.436 0.302-0.716 0-0.552-0.448-1-1-1-0.010 0-0.020 0-0.030 0l0.001-0z"></path>
</svg>
